<svg xmlns="http://www.w3.org/2000/svg" viewBox="0 0 512.001 512.001" style="enable-background:new 0 0 512.001 512.001" xml:space="preserve"><path style="fill:#ffeb64" d="M147.689 316.12 43.607 420.201c-13.312 13.313-13.312 34.879 0 48.191 6.656 6.656 15.376 9.985 24.095 9.985s17.439-3.329 24.095-9.985L195.88 364.31l-48.191-48.19z"/><circle style="fill:#fff" cx="161.778" cy="350.222" r="25.63"/><path style="fill:#e4eaf8" d="m115.53 290.424-19.602-17.706a8.544 8.544 0 0 1 0-12.082l149.777-149.777a34.175 34.175 0 0 1 19.331-9.666l73.298-10.471L127.6 290.435a8.544 8.544 0 0 1-12.07-.011zM221.576 396.47l17.706 19.602a8.544 8.544 0 0 0 12.082 0l149.777-149.777a34.175 34.175 0 0 0 9.666-19.331l10.471-73.298L221.564 384.4a8.544 8.544 0 0 0 .012 12.07z"/><path style="fill:#ffc850" d="M503.356 16.815a8.473 8.473 0 0 0-8.172-8.172c-20.412-.803-76.828.426-111.334 34.932L242.934 184.491l84.575 84.575L468.425 128.15c34.506-34.507 35.734-90.923 34.931-111.335z"/><path style="fill:#e1a546" d="M495.184 8.643c-20.412-.803-76.828.426-111.334 34.932l84.575 84.575c34.507-34.506 35.735-90.922 34.931-111.333a8.474 8.474 0 0 0-8.172-8.174zM324.525 102.9l-81.591 81.591 84.575 84.575 81.591-81.591-84.575-84.575z"/><path style="fill:#d5dced" d="m297.178 166.493-160.104 16.562a42.711 42.711 0 0 0-25.809 12.284l-14.363 14.363a8.544 8.544 0 0 0-.911 11.007l56.203 78.685 60.411 60.41 78.685 56.204a8.544 8.544 0 0 0 11.007-.911l14.363-14.363a42.714 42.714 0 0 0 12.284-25.809l16.562-160.104-48.328-48.328z"/><path style="fill:#c7cfe2" d="M315.302 402.093 109.906 196.698 96.9 209.704a8.544 8.544 0 0 0-.911 11.007l56.203 78.685 60.411 60.41 78.685 56.204a8.544 8.544 0 0 0 11.007-.911l13.007-13.006z"/><path style="fill:#e4eaf8" d="M406.682 105.319c-7.025-7.025-18.033-8.115-26.298-2.605l-41.383 27.589a205.025 205.025 0 0 0-31.249 25.618L176.357 287.314l48.328 48.328 131.393-131.393A205.025 205.025 0 0 0 381.696 173l27.589-41.383c5.512-8.267 4.422-19.274-2.603-26.298z"/><path style="fill:#afb9d2" d="m224.686 335.642-48.328-48.328-27.576 18.383c-4.486 2.99-5.114 9.337-1.302 13.149l45.673 45.673c3.812 3.812 10.159 3.183 13.149-1.302l18.384-27.575z"/><path d="M357.975 189.515c9.785-9.785 9.785-25.706 0-35.491-9.784-9.784-25.706-9.785-35.491 0a8.008 8.008 0 0 0 0 11.326 8.008 8.008 0 0 0 11.326 0c3.539-3.539 9.297-3.54 12.837 0 3.539 3.539 3.539 9.298 0 12.837a8.008 8.008 0 0 0 5.663 13.672 7.978 7.978 0 0 0 5.665-2.344z"/><path d="M511.3 7.797A8.007 8.007 0 0 0 504.203.7c-.819-.09-20.328-2.137-45.413 1.223-33.699 4.513-61.405 16.792-80.124 35.511l-42.21 42.21-70.655 10.094c-8.976 1.283-17.45 5.519-23.863 11.931l-16.108 16.108-.001.001-.001.001-53.587 53.587-35.99 3.723a50.868 50.868 0 0 0-30.649 14.588l-19.481 19.481a8.01 8.01 0 0 0-.854 10.319l16.193 22.671-15.34 15.34a8.008 8.008 0 0 0 0 11.326l30.205 30.205a7.987 7.987 0 0 0 5.663 2.346c2.049 0 4.1-.782 5.663-2.346l8.417-8.417 6.748 9.448-7.148 4.765a8.006 8.006 0 0 0-1.22 12.327l60.41 60.41a8.008 8.008 0 0 0 12.327-1.22l4.765-7.148 9.448 6.748-8.417 8.417a8.008 8.008 0 0 0 0 11.326l30.205 30.205c1.563 1.563 3.614 2.346 5.663 2.346s4.1-.782 5.663-2.346l15.34-15.34 22.671 16.193a7.983 7.983 0 0 0 4.653 1.492 8 8 0 0 0 5.666-2.346l19.481-19.481a50.868 50.868 0 0 0 14.588-30.649l3.723-35.991 69.699-69.697c6.411-6.412 10.648-14.887 11.931-23.863l10.094-70.655 42.21-42.21c18.719-18.718 30.998-46.425 35.511-80.124 3.358-25.085 1.311-44.594 1.221-45.412zM351.612 233.635l1.569-15.161 8.561-8.561a213.57 213.57 0 0 0 26.619-32.47l27.587-41.382c7.604-11.403 6.087-26.715-3.604-36.405-9.691-9.691-25.002-11.209-36.405-3.604l-41.382 27.587a213.413 213.413 0 0 0-32.47 26.619l-8.561 8.561-15.161 1.569L384.329 54.423l73.248 73.248-105.965 105.964zM314.916 390.38l-66.82-66.82 87.124-87.124-14.242 137.665a34.824 34.824 0 0 1-6.062 16.279zm-90.23-66.064-12.837-12.837 36.624-36.624a8.008 8.008 0 0 0 0-11.326 8.008 8.008 0 0 0-11.326 0l-36.624 36.624-12.837-12.837 115.193-115.193.009-.009 10.529-10.529a197.522 197.522 0 0 1 30.029-24.618l41.382-27.587c5.073-3.382 11.883-2.708 16.193 1.603 4.311 4.31 4.985 11.12 1.603 16.193l-27.587 41.382a197.522 197.522 0 0 1-24.618 30.029L224.686 324.316zm43.379-218.721 49.511-7.073-49.839 49.839-24.919-24.919 10.445-10.445a26.333 26.333 0 0 1 14.802-7.402zm-36.573 29.174 24.919 24.919-3.314 3.314-55.589 5.751 33.984-33.984zm-93.593 56.253 137.665-14.242-87.124 87.124-66.821-66.82a34.828 34.828 0 0 1 16.28-6.062zm-15.911 91.006-18.879-18.879 7.787-7.788 15.731 22.025-4.639 4.642zm-19.744-66.341 7.662-7.662 67.207 67.207-5.859 5.859-15.102 10.068-53.908-75.472zm73.093 81.933 13.858 13.858-18.878 18.878-17.633-17.633 22.653-15.103zm23.94 61.696-17.633-17.633 18.878-18.878 13.858 13.858-15.103 22.653zm49.573 49.573-18.879-18.879 4.641-4.641 22.025 15.731-7.787 7.789zm47.463.866-75.472-53.908 10.068-15.102 5.859-5.859 67.207 67.207-7.662 7.662zm52.686-150.852 3.314-3.314 24.92 24.92-33.984 33.983 5.75-55.589zm57.405-14.968a26.337 26.337 0 0 1-7.4 14.8l-10.446 10.446-24.92-24.92 49.839-49.839-7.073 49.513zm62.222-127.868-72.694-72.694c32.734-27.08 82.076-27.877 99.863-27.169.704 17.792-.091 67.132-27.169 99.863zM164.653 384.348l-46.077 46.077a8.008 8.008 0 0 0 0 11.326 7.979 7.979 0 0 0 5.663 2.346c2.049 0 4.1-.782 5.663-2.346l46.077-46.077a8.009 8.009 0 0 0-11.326-11.326zM130.658 490.836c-3.329 3.328-7.753 5.161-12.459 5.161s-9.131-1.833-12.459-5.161c-3.329-3.329-5.161-7.753-5.161-12.459s1.833-9.132 5.161-12.459a8.008 8.008 0 0 0 0-11.326 8.008 8.008 0 0 0-11.326 0c-6.354 6.353-9.854 14.801-9.854 23.787s3.5 17.434 9.854 23.787c6.558 6.558 15.172 9.837 23.787 9.837 8.614 0 17.229-3.278 23.786-9.837a8.008 8.008 0 0 0 0-11.326 8.008 8.008 0 0 0-11.329-.004zM75.911 395.77c2.049 0 4.1-.782 5.663-2.346l46.077-46.077a8.008 8.008 0 0 0 0-11.326 8.008 8.008 0 0 0-11.326 0l-46.078 46.077a8.008 8.008 0 0 0 5.664 13.672zM57.41 417.588a8.008 8.008 0 0 0 0-11.326 8.007 8.007 0 0 0-11.326 0c-3.329 3.329-7.753 5.161-12.459 5.161s-9.132-1.833-12.459-5.161a17.507 17.507 0 0 1-5.161-12.459c0-4.707 1.833-9.132 5.161-12.459a8.008 8.008 0 0 0 0-11.326 8.008 8.008 0 0 0-11.326 0c-13.116 13.116-13.116 34.457 0 47.572 6.353 6.354 14.801 9.854 23.787 9.854s17.43-3.502 23.783-9.856zM27.96 472.712l-8.543 8.543a8.008 8.008 0 0 0 5.663 13.672c2.049 0 4.1-.782 5.663-2.346l8.543-8.543a8.01 8.01 0 0 0-11.326-11.326zM151.816 360.184a8.008 8.008 0 0 0-11.326 0l-86.9 86.898a8.008 8.008 0 0 0 5.663 13.672c2.049 0 4.1-.782 5.663-2.346l86.899-86.899a8.008 8.008 0 0 0 .001-11.325zM160.863 460.631l-6.041 6.041a8.008 8.008 0 0 0 5.663 13.672c2.049 0 4.1-.782 5.663-2.346l6.041-6.041a8.008 8.008 0 0 0 0-11.326 8.008 8.008 0 0 0-11.326 0zM39.664 359.524c2.049 0 4.1-.782 5.663-2.346l6.041-6.041a8.008 8.008 0 0 0 0-11.326 8.008 8.008 0 0 0-11.326 0l-6.041 6.041a8.008 8.008 0 0 0 5.663 13.672z"/></svg>